<?xml version="1.0" encoding="iso-8859-1"?>
<!-- Generator: Adobe Illustrator 16.0.0, SVG Export Plug-In . SVG Version: 6.00 Build 0)  -->
<!DOCTYPE svg PUBLIC "-//W3C//DTD SVG 1.1//EN" "http://www.w3.org/Graphics/SVG/1.1/DTD/svg11.dtd">
<svg version="1.1" xmlns="http://www.w3.org/2000/svg" xmlns:xlink="http://www.w3.org/1999/xlink" x="0px" y="0px" width="2208px"
	 height="2208px" viewBox="0 0 2208 2208" style="enable-background:new 0 0 2208 2208;" xml:space="preserve">
<g id="hourglass-icon">
	<g style="display:none;">
		<path style="display:inline;fill:#1ABC9C;stroke:#1ABC9C;stroke-miterlimit:10;" d="M2207.5,2196.262
			c0,6.628-4.509,12.238-11.138,12.238H12.002c-6.629,0-12.502-5.61-12.502-12.238V12.002C-0.5,5.374,5.373,0.5,12.002,0.5h2184.36
			c6.629,0,11.138,4.874,11.138,11.502V2196.262z"/>
		<path style="display:inline;fill:#47967D;stroke:#47967D;stroke-miterlimit:10;" d="M2207.5,2194.5V1000.753v-0.003L1561,361.5
			H679l24,77l40,69.75l20,251.875l96,119.938l46,41.969l96,57.984l58,45.992l24,76.996l-20,74.998l-114,76.248L845,1376l-78.75,102
			l-30.75,146v46l-3,24l38.25,48l-132.518,95.607l370.215,369.893H2196.5C2203.127,2207.5,2207.5,2201.127,2207.5,2194.5z"/>
		<path style="fill:#FFFFFF;" d="M2085.154,2066.889c-648.771,0-1297.538,0-1946.309,0c0-647.595,0-1295.189,0-1942.776
			c648.771,0,1297.537,0,1946.309,0C2085.154,771.699,2085.154,1419.294,2085.154,2066.889z M1112.179,379.086
			c0,0.024,0,0.044,0,0.063c-140.092,0-280.182,0.205-420.274-0.281c-15.709-0.049-24.636,3.93-25.445,20.79
			c-2.412,50.446-7.751,100.902-7.12,151.292c0.725,58.467,14.124,115.068,36.373,169.588
			c31.572,77.367,89.686,131.785,155.329,178.65c53.507,38.202,109.775,72.556,165.044,108.262
			c30.805,19.905,51.157,44.845,45.214,84.36c-0.957,6.32-0.74,13.007,0.063,19.381c4.501,35.921-14.745,58.445-42.253,76.778
			c-63.068,42.008-126.964,82.879-188.75,126.686c-79.574,56.432-133.197,131.812-156.237,227.666
			c-21.657,90.112-20.544,180.655-4.758,271.346c0.824,4.739,7.1,10.309,12.051,12.07c6.342,2.266,13.923,1.288,20.97,1.288
			c249.567,0.04,499.122,0.028,748.697,0.016c28.834,0,57.68-0.226,86.516-0.138c9.111,0.023,15.76-1.662,17.562-12.6
			c12.571-75.942,15.734-152.084,3.473-228.289c-14.298-88.815-47.219-169.294-116.514-229.474
			c-43.83-38.085-90.842-72.73-138.122-106.54c-35.781-25.585-74.806-46.597-111.351-71.191
			c-21.748-14.65-32.809-36.135-30.332-63.594c1.161-12.857,1.236-25.935,0.361-38.816c-1.611-23.604,9.723-40.531,26.549-54.785
			c7.147-6.05,15.008-11.351,22.871-16.495c52.12-34.095,105.677-66.184,156.135-102.582c53.43-38.535,104.8-80.235,137.997-139.355
			c64.278-114.449,68.243-237.325,51.544-363.331c-2.351-17.709-10.887-21.146-27.086-21.084
			C1391.191,379.323,1251.679,379.086,1112.179,379.086z M1113.732,2000.645c0-0.451,0-0.899,0-1.35c67.055,0,134.108,0,201.163,0
			c96.4-0.01,192.806,0.124,289.219-0.151c21.91-0.06,41.497-8.895,51.722-28.01c20.709-38.707,9.948-86.11-46.296-97.076
			c-4.672-0.909-11.687-2.572-13.024-5.786c-9.835-23.745-29.296-27.984-51.729-27.984c-287.146,0.05-574.29,0.014-861.442,0.05
			c-7.036,0-15.036-1.312-20.917,1.488c-11.103,5.3-22.865,11.513-30.76,20.499c-5.679,6.472-9.479,10.663-18.596,12.375
			c-35.851,6.746-55.638,31.029-54.79,64.701c0.8,31.672,23.29,55.511,57.694,60.508c7.511,1.087,15.27,0.714,22.903,0.714
			C797.163,2000.658,955.446,2000.645,1113.732,2000.645z M1111.976,205.973c-75.903,0-151.812,0-227.715,0
			c-85.316,0-170.64-0.157-255.952,0.068c-39.96,0.113-68.727,26.616-68.674,62.399c0.042,32.83,17.783,52.595,55.575,62.75
			c5.067,1.363,11.578,3.905,13.875,7.924c10.951,19.211,27.043,25.297,48.502,25.129c85.905-0.663,171.81-0.263,257.717-0.263
			c203.585,0,407.179,0.255,610.758-0.593c13.423-0.049,31.96-4.694,39.005-14.054c11.175-14.843,25.062-18.899,40.235-24.023
			c22.445-7.594,38.32-28.942,38.996-51.419c1.211-40.535-26.998-67.899-70.418-67.918
			C1433.245,205.91,1272.613,205.948,1111.976,205.973z"/>
		<path style="display:inline;fill-rule:evenodd;clip-rule:evenodd;fill:#FFFFFF;" d="M1104.708,491.432
			c117.32,0,234.651,0.2,351.966-0.268c13.624-0.052,20.803,2.838,22.78,17.732c14.044,105.972,10.709,209.311-43.349,305.563
			c-27.92,49.72-71.122,84.79-116.057,117.198c-42.436,30.61-87.477,57.598-131.311,86.271c-6.612,4.326-13.223,8.784-19.234,13.872
			c-14.15,11.988-22.327,25.7-22.327,46.075c0,10.907-0.304,17.976-0.304,32.645c0,22.841,7.219,41.162,25.509,53.482
			c30.734,20.685,63.554,38.355,93.646,59.872c39.763,28.435,79.3,57.571,116.161,89.601
			c58.277,50.612,85.964,118.295,97.988,192.989c10.312,64.089,7.652,128.124-2.92,191.992c-1.517,9.198-7.107,10.615-14.771,10.596
			c-24.251-0.073-48.511,0.116-72.76,0.116c-209.894,0.011-419.771,0.021-629.658-0.014c-5.926,0-12.302,0.822-17.636-1.083
			c-4.164-1.481-9.442-6.165-10.135-10.151c-13.276-76.271-14.212-152.418,4.001-228.203
			c19.377-80.613,64.475-144.009,131.396-191.468c51.962-36.842,105.699-71.214,158.74-106.543
			c23.134-15.418,35.535-34.488,35.535-64.571c0-6.886-0.054-10.922-0.054-16.299c0-33.169-12.118-54.207-38.025-70.947
			c-46.481-30.029-93.803-58.922-138.803-91.049c-55.206-39.414-104.08-85.18-130.632-150.246
			c-18.711-45.851-29.979-93.453-30.589-142.624c-0.531-42.378,3.959-84.812,5.988-127.237c0.68-14.179,8.188-17.526,21.399-17.484
			c117.818,0.409,235.635,0.236,353.452,0.236C1104.708,491.469,1104.708,491.452,1104.708,491.432z M813.258,682.256
			c6.455,47.25,18.643,92.265,48.764,127.857c28.521,33.699,62.301,63.279,95.688,92.473c40.932,35.781,76.254,64.24,118.373,98.661
			c5.5,4.75,13.53,11.452,16.083,15.167c1.755,2.554,1.714,4.756,1.833,10.75c0.053,2.667,0.107,4.086,0.083,10.666
			c-0.021,3.335,0.09,16.069,0.083,17.834c-0.452,106.445,1.167,204.336,0,307.332c-0.103,9.074,0.8,13.504,0.167,23.504
			c-0.833,13.167-0.655,21.603-0.833,26.335c-1.333,35.334-8.316,44.688-36.859,60.833
			c-58.049,32.828-115.285,67.275-171.332,103.422c-38.781,24.997-62.011,62.271-71.073,108.299c193.97,0,386.761,0,580.781,0
			c-8.662-40.741-27.216-74.682-59.39-99.06c-27.109-20.538-56.248-38.544-85.312-56.319
			c-40.038-24.492-80.771-47.859-121.408-71.372c-9.47-8.797-11.185-10.061-13.407-24.803c-1.273-13.825-1.003-18.801-0.833-39.168
			c0.07-8.442,0.792-242.007,0.083-348.167c-0.023-3.47,0.002-9.838-0.083-13.337c-0.115-4.755-0.155-13.28,1.333-17.163
			c1.861-4.854,6.504-7.984,9.334-10.583c2.869-2.635,6.865-6.188,10.195-8.417c58.025-47.782,112.262-93.282,170.168-141.205
			c42.344-35.039,67.916-80.443,82.19-132.711c3.553-13.008,5.191-26.542,7.905-40.827
			C1200.457,682.256,1007.628,682.256,813.258,682.256z"/>
		
			<path style="display:inline;fill-rule:evenodd;clip-rule:evenodd;fill:#FFFFFF;stroke:#000000;stroke-width:0.841;stroke-miterlimit:10;" d="
			M1105.015,1865.935c-133.12,0-266.236,0.009-399.353-0.021c-6.42,0-12.945,0.315-19.262-0.598
			c-28.934-4.205-47.849-24.252-48.521-50.888c-0.714-28.317,15.927-48.741,46.078-54.418c7.667-1.438,10.863-4.96,15.639-10.405
			c6.64-7.558,16.532-12.782,25.869-17.236c4.946-2.357,11.674-1.252,17.591-1.252c241.497-0.034,482.986,0,724.477-0.045
			c18.866,0,35.233,3.564,43.505,23.536c1.125,2.702,7.024,4.1,10.953,4.867c47.302,9.22,56.352,49.087,38.936,81.643
			c-8.6,16.071-25.072,23.506-43.499,23.557c-81.083,0.229-162.16,0.115-243.233,0.126c-56.394,0-112.786,0-169.18,0
			C1105.015,1865.18,1105.015,1865.556,1105.015,1865.935z"/>
		<path style="display:inline;fill-rule:evenodd;clip-rule:evenodd;fill:#FFFFFF;" d="M1103.385,336.646
			c135.098-0.01,270.189-0.043,405.284,0.01c36.517,0.015,60.24,23.032,59.222,57.119c-0.568,18.906-13.919,36.859-32.796,43.244
			c-12.761,4.311-24.44,7.72-33.838,20.203c-5.925,7.875-21.515,11.778-32.804,11.821c-171.211,0.715-342.434,0.499-513.65,0.499
			c-72.249,0-144.495-0.336-216.742,0.221c-18.047,0.142-31.581-4.977-40.791-21.134c-1.932-3.379-7.408-5.519-11.669-6.665
			c-31.783-8.539-46.704-25.164-46.739-52.771c-0.044-30.094,24.148-52.384,57.755-52.479c71.749-0.189,143.505-0.059,215.257-0.059
			C975.711,336.656,1039.55,336.656,1103.385,336.646z"/>
		<path style="fill-rule:evenodd;clip-rule:evenodd;fill:#4F4F4F;" d="M765.629,605.986c231.116,0,460.4,0,692.665,0
			c-3.227,16.986-5.175,33.079-9.399,48.545c-16.973,62.15-47.38,116.138-97.729,157.801
			c-68.854,56.983-137.345,114.381-206.341,171.196c-17.035,14.021-24.271,29.734-24.12,52.873
			c1.014,151.779,0.535,303.576-0.2,455.372c-0.089,17.435,5.673,28.823,20.448,37.372c48.32,27.957,96.753,55.742,144.36,84.865
			c34.558,21.136,69.205,42.546,101.44,66.967c38.256,28.986,60.317,69.344,70.617,117.787c-230.7,0-459.939,0-690.58,0
			c10.775-54.73,38.397-99.051,84.51-128.773c66.643-42.98,134.699-83.939,203.723-122.974
			c33.939-19.198,49.855-40.508,48.895-82.792c-3.299-145.258-1.503-290.655-0.918-435.989c0.07-15.605-4.051-27.267-15.854-36.915
			c-50.081-40.929-101.084-80.806-149.754-123.351c-39.699-34.714-79.865-69.885-113.779-109.956
			C787.796,715.694,773.305,662.168,765.629,605.986z"/>
	</g>
	<g>
		<path style="fill:#1ABC9C;stroke:#1ABC9C;stroke-miterlimit:10;" d="M2207.5,2196.262c0,6.628-4.509,12.238-11.138,12.238H12.002
			c-6.629,0-12.502-5.61-12.502-12.238V12.002C-0.5,5.374,5.373,0.5,12.002,0.5h2184.36c6.629,0,11.138,4.874,11.138,11.502
			V2196.262z"/>
		<path style="fill:#47967D;stroke:#47967D;stroke-miterlimit:10;" d="M2207.5,2194.5V1000.753v-0.003L1561,361.5H679l24,77
			l40,69.75l20,251.875l96,119.938l46,41.969l96,57.984l58,45.992l24,76.996l-20,74.998l-114,76.248L845,1376l-78.75,102l-30.75,146
			v46l-3,24l38.25,48l-132.518,95.607l370.215,369.893H2196.5C2203.127,2207.5,2207.5,2201.127,2207.5,2194.5z"/>
		<path style="display:none;fill:#FFFFFF;" d="M2085.154,2066.889c-648.771,0-1297.538,0-1946.309,0
			c0-647.595,0-1295.189,0-1942.776c648.771,0,1297.537,0,1946.309,0C2085.154,771.699,2085.154,1419.294,2085.154,2066.889z
			 M1112.179,379.086c0,0.024,0,0.044,0,0.063c-140.092,0-280.182,0.205-420.274-0.281c-15.709-0.049-24.636,3.93-25.445,20.79
			c-2.412,50.446-7.751,100.902-7.12,151.292c0.725,58.467,14.124,115.068,36.373,169.588
			c31.572,77.367,89.686,131.785,155.329,178.65c53.507,38.202,109.775,72.556,165.044,108.262
			c30.805,19.905,51.157,44.845,45.214,84.36c-0.957,6.32-0.74,13.007,0.063,19.381c4.501,35.921-14.745,58.445-42.253,76.778
			c-63.068,42.008-126.964,82.879-188.75,126.686c-79.574,56.432-133.197,131.812-156.237,227.666
			c-21.657,90.112-20.544,180.655-4.758,271.346c0.824,4.739,7.1,10.309,12.051,12.07c6.342,2.266,13.923,1.288,20.97,1.288
			c249.567,0.04,499.122,0.028,748.697,0.016c28.834,0,57.68-0.226,86.516-0.138c9.111,0.023,15.76-1.662,17.562-12.6
			c12.571-75.942,15.734-152.084,3.473-228.289c-14.298-88.815-47.219-169.294-116.514-229.474
			c-43.83-38.085-90.842-72.73-138.122-106.54c-35.781-25.585-74.806-46.597-111.351-71.191
			c-21.748-14.65-32.809-36.135-30.332-63.594c1.161-12.857,1.236-25.935,0.361-38.816c-1.611-23.604,9.723-40.531,26.549-54.785
			c7.147-6.05,15.008-11.351,22.871-16.495c52.12-34.095,105.677-66.184,156.135-102.582c53.43-38.535,104.8-80.235,137.997-139.355
			c64.278-114.449,68.243-237.325,51.544-363.331c-2.351-17.709-10.887-21.146-27.086-21.084
			C1391.191,379.323,1251.679,379.086,1112.179,379.086z M1113.732,2000.645c0-0.451,0-0.899,0-1.35c67.055,0,134.108,0,201.163,0
			c96.4-0.01,192.806,0.124,289.219-0.151c21.91-0.06,41.497-8.895,51.722-28.01c20.709-38.707,9.948-86.11-46.296-97.076
			c-4.672-0.909-11.687-2.572-13.024-5.786c-9.835-23.745-29.296-27.984-51.729-27.984c-287.146,0.05-574.29,0.014-861.442,0.05
			c-7.036,0-15.036-1.312-20.917,1.488c-11.103,5.3-22.865,11.513-30.76,20.499c-5.679,6.472-9.479,10.663-18.596,12.375
			c-35.851,6.746-55.638,31.029-54.79,64.701c0.8,31.672,23.29,55.511,57.694,60.508c7.511,1.087,15.27,0.714,22.903,0.714
			C797.163,2000.658,955.446,2000.645,1113.732,2000.645z M1111.976,205.973c-75.903,0-151.812,0-227.715,0
			c-85.316,0-170.64-0.157-255.952,0.068c-39.96,0.113-68.727,26.616-68.674,62.399c0.042,32.83,17.783,52.595,55.575,62.75
			c5.067,1.363,11.578,3.905,13.875,7.924c10.951,19.211,27.043,25.297,48.502,25.129c85.905-0.663,171.81-0.263,257.717-0.263
			c203.585,0,407.179,0.255,610.758-0.593c13.423-0.049,31.96-4.694,39.005-14.054c11.175-14.843,25.062-18.899,40.235-24.023
			c22.445-7.594,38.32-28.942,38.996-51.419c1.211-40.535-26.998-67.899-70.418-67.918
			C1433.245,205.91,1272.613,205.948,1111.976,205.973z"/>
		<path style="fill-rule:evenodd;clip-rule:evenodd;fill:#FFFFFF;" d="M1104.708,491.432c117.32,0,234.651,0.2,351.966-0.268
			c13.624-0.052,20.803,2.838,22.78,17.732c14.044,105.972,10.709,209.311-43.349,305.563
			c-27.92,49.72-71.122,84.79-116.057,117.198c-42.436,30.61-87.477,57.598-131.311,86.271c-6.612,4.326-13.223,8.784-19.234,13.872
			c-14.15,11.988-22.327,25.7-22.327,46.075c0,10.907-0.304,17.976-0.304,32.645c0,22.841,7.219,41.162,25.509,53.482
			c30.734,20.685,63.554,38.355,93.646,59.872c39.763,28.435,79.3,57.571,116.161,89.601
			c58.277,50.612,85.964,118.295,97.988,192.989c10.312,64.089,7.652,128.124-2.92,191.992c-1.517,9.198-7.107,10.615-14.771,10.596
			c-24.251-0.073-48.511,0.116-72.76,0.116c-209.894,0.011-419.771,0.021-629.658-0.014c-5.926,0-12.302,0.822-17.636-1.083
			c-4.164-1.481-9.442-6.165-10.135-10.151c-13.276-76.271-14.212-152.418,4.001-228.203
			c19.377-80.613,64.475-144.009,131.396-191.468c51.962-36.842,105.699-71.214,158.74-106.543
			c23.134-15.418,35.535-34.488,35.535-64.571c0-6.886-0.054-10.922-0.054-16.299c0-33.169-12.118-54.207-38.025-70.947
			c-46.481-30.029-93.803-58.922-138.803-91.049c-55.206-39.414-104.08-85.18-130.632-150.246
			c-18.711-45.851-29.979-93.453-30.589-142.624c-0.531-42.378,3.959-84.812,5.988-127.237c0.68-14.179,8.188-17.526,21.399-17.484
			c117.818,0.409,235.635,0.236,353.452,0.236C1104.708,491.469,1104.708,491.452,1104.708,491.432z M813.258,682.256
			c6.455,47.25,18.643,92.265,48.764,127.857c28.521,33.699,62.301,63.279,95.688,92.473c40.932,35.781,76.254,64.24,118.373,98.661
			c5.5,4.75,13.53,11.452,16.083,15.167c1.755,2.554,1.714,4.756,1.833,10.75c0.053,2.667,0.107,4.086,0.083,10.666
			c-0.021,3.335,0.09,16.069,0.083,17.834c-0.452,106.445,1.167,204.336,0,307.332c-0.103,9.074,0.8,13.504,0.167,23.504
			c-0.833,13.167-0.655,21.603-0.833,26.335c-1.333,35.334-8.316,44.688-36.859,60.833
			c-58.049,32.828-115.285,67.275-171.332,103.422c-38.781,24.997-62.011,62.271-71.073,108.299c193.97,0,386.761,0,580.781,0
			c-8.662-40.741-27.216-74.682-59.39-99.06c-27.109-20.538-56.248-38.544-85.312-56.319
			c-40.038-24.492-80.771-47.859-121.408-71.372c-9.47-8.797-11.185-10.061-13.407-24.803c-1.273-13.825-1.003-18.801-0.833-39.168
			c0.07-8.442,0.792-242.007,0.083-348.167c-0.023-3.47,0.002-9.838-0.083-13.337c-0.115-4.755-0.155-13.28,1.333-17.163
			c1.861-4.854,6.504-7.984,9.334-10.583c2.869-2.635,6.865-6.188,10.195-8.417c58.025-47.782,112.262-93.282,170.168-141.205
			c42.344-35.039,67.916-80.443,82.19-132.711c3.553-13.008,5.191-26.542,7.905-40.827
			C1200.457,682.256,1007.628,682.256,813.258,682.256z"/>
		<path style="fill-rule:evenodd;clip-rule:evenodd;fill:#FFFFFF;" d="M1105.015,1865.935c-133.12,0-266.236,0.009-399.353-0.021
			c-6.42,0-12.945,0.315-19.262-0.598c-28.934-4.205-47.849-24.252-48.521-50.888c-0.714-28.317,15.927-48.741,46.078-54.418
			c7.667-1.438,10.863-4.96,15.639-10.405c6.64-7.558,16.532-12.782,25.869-17.236c4.946-2.357,11.674-1.252,17.591-1.252
			c241.497-0.034,482.986,0,724.477-0.045c18.866,0,35.233,3.564,43.505,23.536c1.125,2.702,7.024,4.1,10.953,4.867
			c47.302,9.22,56.352,49.087,38.936,81.643c-8.6,16.071-25.072,23.506-43.499,23.557c-81.083,0.229-162.16,0.115-243.233,0.126
			c-56.394,0-112.786,0-169.18,0C1105.015,1865.18,1105.015,1865.556,1105.015,1865.935z"/>
		<path style="fill-rule:evenodd;clip-rule:evenodd;fill:#FFFFFF;" d="M1103.385,336.646c135.098-0.01,270.189-0.043,405.284,0.01
			c36.517,0.015,60.24,23.032,59.222,57.119c-0.568,18.906-13.919,36.859-32.796,43.244c-12.761,4.311-24.44,7.72-33.838,20.203
			c-5.925,7.875-21.515,11.778-32.804,11.821c-171.211,0.715-342.434,0.499-513.65,0.499c-72.249,0-144.495-0.336-216.742,0.221
			c-18.047,0.142-31.581-4.977-40.791-21.134c-1.932-3.379-7.408-5.519-11.669-6.665c-31.783-8.539-46.704-25.164-46.739-52.771
			c-0.044-30.094,24.148-52.384,57.755-52.479c71.749-0.189,143.505-0.059,215.257-0.059
			C975.711,336.656,1039.55,336.656,1103.385,336.646z"/>
		<path style="display:none;fill-rule:evenodd;clip-rule:evenodd;fill:#4F4F4F;" d="M765.629,605.986c231.116,0,460.4,0,692.665,0
			c-3.227,16.986-5.175,33.079-9.399,48.545c-16.973,62.15-47.38,116.138-97.729,157.801
			c-68.854,56.983-137.345,114.381-206.341,171.196c-17.035,14.021-24.271,29.734-24.12,52.873
			c1.014,151.779,0.535,303.576-0.2,455.372c-0.089,17.435,5.673,28.823,20.448,37.372c48.32,27.957,96.753,55.742,144.36,84.865
			c34.558,21.136,69.205,42.546,101.44,66.967c38.256,28.986,60.317,69.344,70.617,117.787c-230.7,0-459.939,0-690.58,0
			c10.775-54.73,38.397-99.051,84.51-128.773c66.643-42.98,134.699-83.939,203.723-122.974
			c33.939-19.198,49.855-40.508,48.895-82.792c-3.299-145.258-1.503-290.655-0.918-435.989c0.07-15.605-4.051-27.267-15.854-36.915
			c-50.081-40.929-101.084-80.806-149.754-123.351c-39.699-34.714-79.865-69.885-113.779-109.956
			C787.796,715.694,773.305,662.168,765.629,605.986z"/>
	</g>
</g>
<g id="Layer_2">
</g>
</svg>
